<?xml version="1.0" standalone="no"?><!DOCTYPE svg PUBLIC "-//W3C//DTD SVG 1.1//EN" "http://www.w3.org/Graphics/SVG/1.1/DTD/svg11.dtd"><svg t="1491711478124" class="icon" style="" viewBox="0 0 1024 1024" version="1.1" xmlns="http://www.w3.org/2000/svg" p-id="11141" xmlns:xlink="http://www.w3.org/1999/xlink" width="128" height="128"><defs><style type="text/css"></style></defs><path d="M878.592 427.008 379.904 427.008c-47.104 0-84.992 38.912-84.992 84.992s37.888 84.992 84.992 84.992l498.688 0c47.104 0 84.992-38.912 84.992-84.992C964.608 464.896 925.696 427.008 878.592 427.008zM878.592 555.008 379.904 555.008c-21.504 0-43.008-17.408-43.008-43.008 0-21.504 17.408-43.008 43.008-43.008l498.688 0c21.504 0 43.008 17.408 43.008 43.008C921.6 533.504 900.096 555.008 878.592 555.008zM379.904 303.104l498.688 0c47.104 0 84.992-38.912 84.992-84.992s-38.912-84.992-84.992-84.992L379.904 133.12c-47.104 0-84.992 38.912-84.992 84.992C294.912 264.192 332.8 303.104 379.904 303.104zM379.904 179.2l498.688 0c21.504 0 43.008 17.408 43.008 43.008 0 21.504-17.408 43.008-43.008 43.008L379.904 265.216c-21.504 0-43.008-17.408-43.008-43.008S358.4 179.2 379.904 179.2zM128 427.008c-47.104 0-84.992 38.912-84.992 84.992s37.888 84.992 84.992 84.992 84.992-38.912 84.992-84.992S175.104 427.008 128 427.008zM128 555.008c-21.504 0-43.008-17.408-43.008-43.008 0-21.504 17.408-43.008 43.008-43.008s43.008 17.408 43.008 43.008C171.008 533.504 153.6 555.008 128 555.008zM128 720.896c-47.104 0-84.992 38.912-84.992 84.992 0 47.104 37.888 84.992 84.992 84.992s84.992-38.912 84.992-84.992C212.992 759.808 175.104 720.896 128 720.896zM128 844.8c-21.504 0-43.008-17.408-43.008-43.008s17.408-43.008 43.008-43.008 43.008 17.408 43.008 43.008S153.6 844.8 128 844.8zM878.592 720.896 379.904 720.896c-47.104 0-84.992 38.912-84.992 84.992 0 47.104 37.888 84.992 84.992 84.992l498.688 0c47.104 0 84.992-38.912 84.992-84.992C964.608 759.808 925.696 720.896 878.592 720.896zM878.592 844.8 379.904 844.8c-21.504 0-43.008-17.408-43.008-43.008 0-21.504 17.408-43.008 43.008-43.008l498.688 0c21.504 0 43.008 17.408 43.008 43.008C921.6 827.392 900.096 844.8 878.592 844.8zM128 136.192c-47.104 0-84.992 37.888-84.992 84.992S80.896 307.2 128 307.2s84.992-38.912 84.992-84.992S175.104 136.192 128 136.192zM128 260.096c-21.504 0-43.008-17.408-43.008-43.008 0-21.504 17.408-43.008 43.008-43.008s43.008 17.408 43.008 43.008S153.6 260.096 128 260.096z" p-id="11142" fill="#ffffff"></path></svg>